<mxfile host="app.diagrams.net" modified="2024-04-23T19:13:08.697Z" agent="Mozilla/5.0 (Windows NT 10.0; Win64; x64) AppleWebKit/537.36 (KHTML, like Gecko) Chrome/124.0.0.0 Safari/537.36 Edg/124.0.0.0" etag="hnzqtgMDAoslx-rAA595" version="24.2.8" type="google">
  <diagram name="Page-1" id="NbzZcbqmwhPjZR7lT0jR">
    <mxGraphModel grid="1" page="1" gridSize="10" guides="1" tooltips="1" connect="1" arrows="1" fold="1" pageScale="1" pageWidth="827" pageHeight="1169" math="0" shadow="0">
      <root>
        <mxCell id="0" />
        <mxCell id="1" parent="0" />
        <mxCell id="_7Z15llkAl0vO2v-7L9U-1" value="&lt;font style=&quot;font-size: 14px;&quot;&gt;Les entités à envisager pour créer ce site Ecommerce&lt;/font&gt;" style="text;html=1;align=center;verticalAlign=middle;whiteSpace=wrap;rounded=0;fillColor=#dae8fc;strokeColor=#6c8ebf;" vertex="1" parent="1">
          <mxGeometry x="110" y="2" width="530" height="30" as="geometry" />
        </mxCell>
        <mxCell id="_7Z15llkAl0vO2v-7L9U-13" value="Product" style="swimlane;childLayout=stackLayout;horizontal=1;startSize=50;horizontalStack=0;rounded=1;fontSize=14;fontStyle=0;strokeWidth=2;resizeParent=0;resizeLast=1;shadow=0;dashed=0;align=center;arcSize=4;whiteSpace=wrap;html=1;" vertex="1" parent="1">
          <mxGeometry x="40" y="450" width="160" height="120" as="geometry" />
        </mxCell>
        <mxCell id="_7Z15llkAl0vO2v-7L9U-14" value="+ name&lt;br&gt;+ description&lt;div&gt;+ price&lt;div&gt;+ stock&lt;/div&gt;&lt;/div&gt;" style="align=left;strokeColor=none;fillColor=none;spacingLeft=4;fontSize=12;verticalAlign=top;resizable=0;rotatable=0;part=1;html=1;" vertex="1" parent="_7Z15llkAl0vO2v-7L9U-13">
          <mxGeometry y="50" width="160" height="70" as="geometry" />
        </mxCell>
        <mxCell id="_7Z15llkAl0vO2v-7L9U-15" value="Category" style="swimlane;childLayout=stackLayout;horizontal=1;startSize=50;horizontalStack=0;rounded=1;fontSize=14;fontStyle=0;strokeWidth=2;resizeParent=0;resizeLast=1;shadow=0;dashed=0;align=center;arcSize=4;whiteSpace=wrap;html=1;" vertex="1" parent="1">
          <mxGeometry x="295" y="450" width="160" height="120" as="geometry" />
        </mxCell>
        <mxCell id="_7Z15llkAl0vO2v-7L9U-16" value="+ name&lt;div&gt;&lt;br/&gt;&lt;/div&gt;" style="align=left;strokeColor=none;fillColor=none;spacingLeft=4;fontSize=12;verticalAlign=top;resizable=0;rotatable=0;part=1;html=1;" vertex="1" parent="_7Z15llkAl0vO2v-7L9U-15">
          <mxGeometry y="50" width="160" height="70" as="geometry" />
        </mxCell>
        <mxCell id="_7Z15llkAl0vO2v-7L9U-17" value="Maker" style="swimlane;childLayout=stackLayout;horizontal=1;startSize=50;horizontalStack=0;rounded=1;fontSize=14;fontStyle=0;strokeWidth=2;resizeParent=0;resizeLast=1;shadow=0;dashed=0;align=center;arcSize=4;whiteSpace=wrap;html=1;" vertex="1" parent="1">
          <mxGeometry x="40" y="690" width="160" height="120" as="geometry" />
        </mxCell>
        <mxCell id="_7Z15llkAl0vO2v-7L9U-18" value="+ company&lt;br&gt;+ email&lt;div&gt;&lt;span style=&quot;background-color: initial;&quot;&gt;+ phone&lt;/span&gt;&lt;/div&gt;" style="align=left;strokeColor=none;fillColor=none;spacingLeft=4;fontSize=12;verticalAlign=top;resizable=0;rotatable=0;part=1;html=1;" vertex="1" parent="_7Z15llkAl0vO2v-7L9U-17">
          <mxGeometry y="50" width="160" height="70" as="geometry" />
        </mxCell>
        <mxCell id="_7Z15llkAl0vO2v-7L9U-19" value="Country" style="swimlane;childLayout=stackLayout;horizontal=1;startSize=50;horizontalStack=0;rounded=1;fontSize=14;fontStyle=0;strokeWidth=2;resizeParent=0;resizeLast=1;shadow=0;dashed=0;align=center;arcSize=4;whiteSpace=wrap;html=1;" vertex="1" parent="1">
          <mxGeometry x="560" y="690" width="160" height="120" as="geometry" />
        </mxCell>
        <mxCell id="_7Z15llkAl0vO2v-7L9U-20" value="+ name&lt;br&gt;+ capitale&lt;br&gt;+ population" style="align=left;strokeColor=none;fillColor=none;spacingLeft=4;fontSize=12;verticalAlign=top;resizable=0;rotatable=0;part=1;html=1;" vertex="1" parent="_7Z15llkAl0vO2v-7L9U-19">
          <mxGeometry y="50" width="160" height="70" as="geometry" />
        </mxCell>
        <mxCell id="_7Z15llkAl0vO2v-7L9U-21" value="MCD" style="text;html=1;align=center;verticalAlign=middle;whiteSpace=wrap;rounded=0;fillColor=#f8cecc;strokeColor=#b85450;" vertex="1" parent="1">
          <mxGeometry x="160" y="160" width="180" height="30" as="geometry" />
        </mxCell>
        <mxCell id="_7Z15llkAl0vO2v-7L9U-22" value="" style="endArrow=none;html=1;rounded=0;dashed=1;dashPattern=1 2;" edge="1" parent="1">
          <mxGeometry relative="1" as="geometry">
            <mxPoint x="210" y="509.33000000000004" as="sourcePoint" />
            <mxPoint x="290" y="509.83000000000004" as="targetPoint" />
          </mxGeometry>
        </mxCell>
        <mxCell id="_7Z15llkAl0vO2v-7L9U-23" value="N" style="resizable=0;html=1;whiteSpace=wrap;align=left;verticalAlign=bottom;" connectable="0" vertex="1" parent="_7Z15llkAl0vO2v-7L9U-22">
          <mxGeometry x="-1" relative="1" as="geometry" />
        </mxCell>
        <mxCell id="_7Z15llkAl0vO2v-7L9U-24" value="1" style="resizable=0;html=1;whiteSpace=wrap;align=right;verticalAlign=bottom;" connectable="0" vertex="1" parent="_7Z15llkAl0vO2v-7L9U-22">
          <mxGeometry x="1" relative="1" as="geometry" />
        </mxCell>
        <mxCell id="_7Z15llkAl0vO2v-7L9U-25" value="" style="endArrow=none;html=1;rounded=0;dashed=1;dashPattern=1 2;" edge="1" parent="1">
          <mxGeometry relative="1" as="geometry">
            <mxPoint x="640" y="889.5" as="sourcePoint" />
            <mxPoint x="640" y="830" as="targetPoint" />
          </mxGeometry>
        </mxCell>
        <mxCell id="_7Z15llkAl0vO2v-7L9U-26" value="N" style="resizable=0;html=1;whiteSpace=wrap;align=left;verticalAlign=bottom;" connectable="0" vertex="1" parent="_7Z15llkAl0vO2v-7L9U-25">
          <mxGeometry x="-1" relative="1" as="geometry" />
        </mxCell>
        <mxCell id="_7Z15llkAl0vO2v-7L9U-27" value="1" style="resizable=0;html=1;whiteSpace=wrap;align=right;verticalAlign=bottom;" connectable="0" vertex="1" parent="_7Z15llkAl0vO2v-7L9U-25">
          <mxGeometry x="1" relative="1" as="geometry" />
        </mxCell>
        <mxCell id="_7Z15llkAl0vO2v-7L9U-28" value="" style="endArrow=none;html=1;rounded=0;dashed=1;dashPattern=1 2;" edge="1" parent="1">
          <mxGeometry relative="1" as="geometry">
            <mxPoint x="119.5" y="585" as="sourcePoint" />
            <mxPoint x="119.5" y="675" as="targetPoint" />
          </mxGeometry>
        </mxCell>
        <mxCell id="_7Z15llkAl0vO2v-7L9U-29" value="N" style="resizable=0;html=1;whiteSpace=wrap;align=left;verticalAlign=bottom;" connectable="0" vertex="1" parent="_7Z15llkAl0vO2v-7L9U-28">
          <mxGeometry x="-1" relative="1" as="geometry" />
        </mxCell>
        <mxCell id="_7Z15llkAl0vO2v-7L9U-30" value="N" style="resizable=0;html=1;whiteSpace=wrap;align=right;verticalAlign=bottom;" connectable="0" vertex="1" parent="_7Z15llkAl0vO2v-7L9U-28">
          <mxGeometry x="1" relative="1" as="geometry" />
        </mxCell>
        <mxCell id="qmp-qQZNeqrjJhzduI5c-1" value="custommers,orders,products,category,maker,users" style="text;html=1;align=center;verticalAlign=middle;whiteSpace=wrap;rounded=0;" vertex="1" parent="1">
          <mxGeometry x="50" y="60" width="460" height="30" as="geometry" />
        </mxCell>
        <mxCell id="qmp-qQZNeqrjJhzduI5c-3" value="Users" style="swimlane;childLayout=stackLayout;horizontal=1;startSize=50;horizontalStack=0;rounded=1;fontSize=14;fontStyle=0;strokeWidth=2;resizeParent=0;resizeLast=1;shadow=0;dashed=0;align=center;arcSize=4;whiteSpace=wrap;html=1;" vertex="1" parent="1">
          <mxGeometry x="40" y="270" width="160" height="120" as="geometry" />
        </mxCell>
        <mxCell id="qmp-qQZNeqrjJhzduI5c-4" value="+name&lt;br&gt;+password&lt;br&gt;+role" style="align=left;strokeColor=none;fillColor=none;spacingLeft=4;fontSize=12;verticalAlign=top;resizable=0;rotatable=0;part=1;html=1;" vertex="1" parent="qmp-qQZNeqrjJhzduI5c-3">
          <mxGeometry y="50" width="160" height="70" as="geometry" />
        </mxCell>
        <mxCell id="qmp-qQZNeqrjJhzduI5c-5" value="users is to connect in website and it will look if u are a customers&amp;nbsp; or an administrator" style="text;html=1;align=center;verticalAlign=middle;whiteSpace=wrap;rounded=0;" vertex="1" parent="1">
          <mxGeometry x="60" y="210" width="580" height="30" as="geometry" />
        </mxCell>
        <mxCell id="qmp-qQZNeqrjJhzduI5c-6" value="we need about product" style="text;html=1;align=center;verticalAlign=middle;whiteSpace=wrap;rounded=0;" vertex="1" parent="1">
          <mxGeometry x="70" y="410" width="380" height="30" as="geometry" />
        </mxCell>
        <mxCell id="qmp-qQZNeqrjJhzduI5c-7" value="about custommers" style="text;html=1;align=center;verticalAlign=middle;whiteSpace=wrap;rounded=0;" vertex="1" parent="1">
          <mxGeometry y="870" width="290" height="30" as="geometry" />
        </mxCell>
        <mxCell id="qmp-qQZNeqrjJhzduI5c-8" value="Custommers" style="swimlane;childLayout=stackLayout;horizontal=1;startSize=50;horizontalStack=0;rounded=1;fontSize=14;fontStyle=0;strokeWidth=2;resizeParent=0;resizeLast=1;shadow=0;dashed=0;align=center;arcSize=4;whiteSpace=wrap;html=1;" vertex="1" parent="1">
          <mxGeometry x="560" y="900" width="160" height="160" as="geometry" />
        </mxCell>
        <mxCell id="qmp-qQZNeqrjJhzduI5c-9" value="+firstname&lt;br&gt;&lt;br&gt;&lt;div&gt;+lastname&lt;br&gt;&lt;br&gt;&lt;div&gt;+adress&lt;div&gt;&lt;span style=&quot;background-color: initial;&quot;&gt;+phone&lt;/span&gt;&lt;/div&gt;&lt;div&gt;&lt;span style=&quot;background-color: initial;&quot;&gt;+email&lt;/span&gt;&lt;br&gt;&lt;/div&gt;&lt;div&gt;&lt;br&gt;&lt;/div&gt;&lt;/div&gt;&lt;/div&gt;" style="align=left;strokeColor=none;fillColor=none;spacingLeft=4;fontSize=12;verticalAlign=top;resizable=0;rotatable=0;part=1;html=1;" vertex="1" parent="qmp-qQZNeqrjJhzduI5c-8">
          <mxGeometry y="50" width="160" height="110" as="geometry" />
        </mxCell>
        <mxCell id="qmp-qQZNeqrjJhzduI5c-13" value="orders" style="swimlane;childLayout=stackLayout;horizontal=1;startSize=50;horizontalStack=0;rounded=1;fontSize=14;fontStyle=0;strokeWidth=2;resizeParent=0;resizeLast=1;shadow=0;dashed=0;align=center;arcSize=4;whiteSpace=wrap;html=1;" vertex="1" parent="1">
          <mxGeometry x="60" y="950" width="160" height="120" as="geometry" />
        </mxCell>
        <mxCell id="qmp-qQZNeqrjJhzduI5c-14" value="+Attribute1&#xa;+Attribute2&#xa;+Attribute3" style="align=left;strokeColor=none;fillColor=none;spacingLeft=4;fontSize=12;verticalAlign=top;resizable=0;rotatable=0;part=1;html=1;" vertex="1" parent="qmp-qQZNeqrjJhzduI5c-13">
          <mxGeometry y="50" width="160" height="70" as="geometry" />
        </mxCell>
        <mxCell id="qmp-qQZNeqrjJhzduI5c-18" value="" style="endArrow=none;html=1;rounded=0;dashed=1;dashPattern=1 2;" edge="1" parent="1">
          <mxGeometry relative="1" as="geometry">
            <mxPoint x="230" y="1000" as="sourcePoint" />
            <mxPoint x="550" y="1000" as="targetPoint" />
          </mxGeometry>
        </mxCell>
        <mxCell id="qmp-qQZNeqrjJhzduI5c-19" value="N" style="resizable=0;html=1;whiteSpace=wrap;align=left;verticalAlign=bottom;" connectable="0" vertex="1" parent="qmp-qQZNeqrjJhzduI5c-18">
          <mxGeometry x="-1" relative="1" as="geometry" />
        </mxCell>
        <mxCell id="qmp-qQZNeqrjJhzduI5c-20" value="N" style="resizable=0;html=1;whiteSpace=wrap;align=right;verticalAlign=bottom;" connectable="0" vertex="1" parent="qmp-qQZNeqrjJhzduI5c-18">
          <mxGeometry x="1" relative="1" as="geometry" />
        </mxCell>
      </root>
    </mxGraphModel>
  </diagram>
</mxfile>
